# xmcd CD database file
#
# Track frame offsets:
#	150
#	21445
#	42769
#	85062
#	108653
#	126476
#	159348
#	195300
#
# Disc length: 2685 seconds
#
# Revision: 0
# Processed by: cddbd v1.5.1PL0 Copyright (c) Steve Scherf et al.
# Submitted via: CDex 1.51
#
DISCID=610a7b08
DTITLE=Out of Favor Boys - Halo
DYEAR=2004
DGENRE=Blues
TTITLE0=Sunday Morning
TTITLE1=Six Ways South
TTITLE2=Dead, Drunk, and Gone
TTITLE3=Wiser Eyes
TTITLE4=Open Book
TTITLE5=Things I've Never Known
TTITLE6=Halo
TTITLE7=Bonus Track
EXTD=YEAR: 2004
EXTT0=
EXTT1=
EXTT2=
EXTT3=
EXTT4=
EXTT5=
EXTT6=
EXTT7=
PLAYORDER=
